<svg id="elPEwdM25uD1" xmlns="http://www.w3.org/2000/svg" xmlns:xlink="http://www.w3.org/1999/xlink" viewBox="0 0 1000 634.14637" shape-rendering="geometricPrecision" text-rendering="geometricPrecision"><g transform="translate(4.000095-420.184402)"><g transform="matrix(8.13008 0 0 8.13008 28.520287-7517.69)"><g><rect width="123" height="78" rx="0" ry="0" transform="translate(-4 976.362)" fill="#477e19" stroke-width="0.25"/></g><g><path d="M0,978.3622h115v74h-115Z" fill="none" stroke="#fffffa" stroke-width="0.25"/><path d="M67.5,1015.3622c0,5.522847-4.477153,10-10,10s-10-4.477153-10-10s4.477153-10,10-10s10,4.477153,10,10Z" fill="none" stroke="#fffffa" stroke-width="0.25"/><rect width="18" height="44" rx="0" ry="0" transform="translate(0 993.362)" fill="none" stroke="#fffffa" stroke-width="0.25"/><rect width="18" height="44" rx="0" ry="0" transform="translate(97 993.362)" fill="none" stroke="#fffffa" stroke-width="0.25"/><rect width="6" height="20" rx="0" ry="0" transform="translate(0 1005.36)" fill="none" stroke="#fffffa" stroke-width="0.25"/><rect width="6" height="20" rx="0" ry="0" transform="translate(109 1005.36)" fill="none" stroke="#fffffa" stroke-width="0.25"/><rect width="3" height="8" rx="0" ry="0" transform="translate(-3 1011.36)" fill="none" stroke="#fffffa" stroke-width="0.25"/><rect width="3" height="8" rx="0" ry="0" transform="translate(115 1011.36)" fill="none" stroke="#fffffa" stroke-width="0.25"/><path d="M97,29.011719C94.485238,30.897787,93.003685,33.856552,93,37c.004912,3.142073,1.486335,6.099133,4,7.984375v-15.972656Z" transform="translate(0 978.362)" fill="none" stroke="#fffffa" stroke-width="0.25"/><circle r="0.375" transform="translate(103 1015.36)" fill="none" stroke="#fffffa" stroke-width="0.25"/><circle r="0.375" transform="translate(12 1015.36)" fill="none" stroke="#fffffa" stroke-width="0.25"/><path d="M18,29.015625v15.972656C20.514762,43.102213,21.996315,40.143448,22,37c-.004912-3.142073-1.486335-6.099133-4-7.984375Z" transform="translate(0 978.362)" fill="none" stroke="#fffffa" stroke-width="0.25"/><path d="M0,73v1h1c0-.552285-.447715-1-1-1Z" transform="translate(0 978.362)" fill="none" stroke="#fffffa" stroke-width="0.25"/><path d="M0,0v1c.552285,0,1-.447715,1-1h-1Z" transform="translate(0 978.362)" fill="none" stroke="#fffffa" stroke-width="0.25"/><path d="M115,73c-.552285,0-1,.447715-1,1h1v-1Z" transform="translate(0 978.362)" fill="none" stroke="#fffffa" stroke-width="0.25"/><path d="M114,0c0,.552285.447715,1,1,1v-1h-1Z" transform="translate(0 978.362)" fill="none" stroke="#fffffa" stroke-width="0.25"/><circle r="0.375" transform="translate(57.5 1015.36)" fill="none" stroke="#fffffa" stroke-width="0.25"/><path d="M57.375,0v36.646484c.040145-.014207.082416-.021472.125-.021484s.084855.007275.125.02148L57.625,0h-.25Zm0,37.353516L57.375,74h.25v-36.646484c-.040145.014207-.082416.021472-.125.021484s-.084855-.007277-.125-.021484Z" transform="translate(0 978.362)" fill="#fff" stroke-width="0.25"/><path d="M105,977.86216v.5" fill="#fff" fill-rule="evenodd" stroke="#fff" stroke-width="0.25"/><path d="M10,977.86216v.5" fill="#fff" fill-rule="evenodd" stroke="#fff" stroke-width="0.25"/><path d="M105,1052.3622v.5" fill="#fff" fill-rule="evenodd" stroke="#fff" stroke-width="0.25"/><path d="M10,1052.3622v.5" fill="#fff" fill-rule="evenodd" stroke="#fff" stroke-width="0.25"/><path d="M115.5,1042.3622h-.5" fill="#fff" fill-rule="evenodd" stroke="#fff" stroke-width="0.25"/><path d="M0,1042.3622h-.5" fill="#fff" fill-rule="evenodd" stroke="#fff" stroke-width="0.25"/><path d="M115.5,988.3622h-.5" fill="#fff" fill-rule="evenodd" stroke="#fff" stroke-width="0.25"/><path d="M0,988.3622h-.5" fill="#fff" fill-rule="evenodd" stroke="#fff" stroke-width="0.25"/></g></g></g><g transform="translate(7.355693 0.004902)"><ellipse rx="42.68292" ry="42.68292" transform="translate(200.000048 138.206529)" fill="#d2dbed" stroke-width="0"/><ellipse rx="42.68292" ry="42.68292" transform="translate(200.00005 495.930049)" fill="#d2dbed" stroke-width="0"/><path d="M-42.68292,0c0-23.573126,19.109794-42.68292,42.68292-42.68292s42.68292,19.109794,42.68292,42.68292-19.109794,42.68292-42.68292,42.68292-42.68292-19.109794-42.68292-42.68292Z" transform="translate(92.682991 317.052029)" fill="#d2dbed" stroke-width="0"/><ellipse rx="42.68292" ry="42.68292" transform="translate(367.682948 209.471761)" fill="#d2dbed" stroke-width="0"/><ellipse rx="42.68292" ry="42.68292" transform="translate(367.682948 424.664816)" fill="#d2dbed" stroke-width="0"/></g><g transform="matrix(-1 0 0-1 1387.20142 617.832221)"><ellipse rx="42.68292" ry="42.68292" transform="translate(762.19508 405.296349)" fill="#d2dbed" stroke-width="0"/><ellipse rx="42.68292" ry="42.68292" transform="translate(594.51218 118.838062)" fill="#d2dbed" stroke-width="0"/><ellipse rx="42.68292" ry="42.68292" transform="translate(594.512182 476.561582)" fill="#d2dbed" stroke-width="0"/><ellipse rx="42.68292" ry="42.68292" transform="translate(487.195124 297.683562)" fill="#d2dbed" stroke-width="0"/><ellipse rx="42.68292" ry="42.68292" transform="translate(762.19508 190.103294)" fill="#d2dbed" stroke-width="0"/></g></svg>
